<svg xmlns="http://www.w3.org/2000/svg" version="1.1" xmlns:xlink="http://www.w3.org/1999/xlink" xmlns:svgjs="http://svgjs.dev/svgjs" width="1000" height="1000" viewBox="0 0 1000 1000"><rect width="1000" height="1000" fill="#000000"></rect><g transform="matrix(0.7,0,0,0.7,149.57575757575756,388.38285757819244)"><svg viewBox="0 0 396 126" data-background-color="#ffffff" preserveAspectRatio="xMidYMid meet" height="318" width="1000" xmlns="http://www.w3.org/2000/svg" xmlns:xlink="http://www.w3.org/1999/xlink"><g id="tight-bounds" transform="matrix(1,0,0,1,0.2400000000000091,0.1795145783816281)"><svg viewBox="0 0 395.52 125.64097084323676" height="125.64097084323676" width="395.52"><g><svg viewBox="0 0 624.879715391253 198.4994288582183" height="125.64097084323676" width="395.52"><g><rect width="5.489741469595784" height="198.4994288582183" x="209.49892295412891" y="0" fill="#ffffff" opacity="1" stroke-width="0" stroke="transparent" fill-opacity="1" class="rect-rb-0" data-fill-palette-color="primary" rx="1%" id="rb-0" data-palette-color="#636365"></rect></g><g transform="matrix(1,0,0,1,229.3597153912529,0.49377967377665755)"><svg viewBox="0 0 395.52 197.51186951066498" height="197.51186951066498" width="395.52"><g><svg viewBox="0 0 395.52 197.51186951066498" height="197.51186951066498" width="395.52"><g><svg viewBox="0 0 395.52 197.51186951066498" height="197.51186951066498" width="395.52"><g transform="matrix(1,0,0,1,0,0)"><svg width="395.52" viewBox="2.7499999999999973 -36.1 239.10000000000002 116.4" height="197.51186951066498" data-palette-color="#636365"><svg></svg><svg></svg><svg></svg><g class="undefined-text-0" data-fill-palette-color="primary" id="text-0"><path d="M14.2-36.05v0c1.967 0 3.483 0.207 4.55 0.62 1.067 0.42 1.983 0.863 2.75 1.33v0c0.4 0.233 0.727 0.407 0.98 0.52 0.247 0.12 0.487 0.18 0.72 0.18v0c0.533 0 0.9-0.733 1.1-2.2v0h1.15c-0.033 0.633-0.073 1.39-0.12 2.27-0.053 0.887-0.087 2.047-0.1 3.48-0.02 1.433-0.03 3.317-0.03 5.65v0h-1.15c-0.133-1.733-0.533-3.417-1.2-5.05-0.667-1.633-1.607-2.973-2.82-4.02-1.22-1.053-2.713-1.58-4.48-1.58v0c-1.6 0-2.917 0.45-3.95 1.35-1.033 0.9-1.55 2.15-1.55 3.75v0c0 1.333 0.333 2.473 1 3.42 0.667 0.953 1.643 1.88 2.93 2.78 1.28 0.9 2.837 1.983 4.67 3.25v0c1.6 1.033 3.033 2.067 4.3 3.1 1.267 1.033 2.283 2.2 3.05 3.5 0.767 1.3 1.15 2.85 1.15 4.65v0c0 2.2-0.573 4.017-1.72 5.45-1.153 1.433-2.663 2.507-4.53 3.22-1.867 0.72-3.917 1.08-6.15 1.08v0c-2.067 0-3.717-0.2-4.95-0.6-1.233-0.4-2.267-0.817-3.1-1.25v0c-0.733-0.467-1.3-0.7-1.7-0.7v0c-0.533 0-0.9 0.733-1.1 2.2v0h-1.15c0.067-0.8 0.11-1.733 0.13-2.8 0.013-1.067 0.03-2.46 0.05-4.18 0.013-1.713 0.02-3.887 0.02-6.52v0h1.15c0.133 2.2 0.51 4.257 1.13 6.17 0.613 1.92 1.563 3.463 2.85 4.63 1.28 1.167 2.987 1.75 5.12 1.75v0c1.733 0 3.2-0.467 4.4-1.4 1.2-0.933 1.8-2.333 1.8-4.2v0c0-2.067-0.7-3.777-2.1-5.13-1.4-1.347-3.2-2.737-5.4-4.17v0c-1.567-1.033-3.033-2.067-4.4-3.1-1.367-1.033-2.457-2.217-3.27-3.55-0.82-1.333-1.23-2.917-1.23-4.75v0c0-2.1 0.527-3.827 1.58-5.18 1.047-1.347 2.427-2.347 4.14-3 1.72-0.647 3.547-0.97 5.48-0.97zM49.05-36.1v0c3.533 0 6.627 0.717 9.28 2.15 2.647 1.433 4.703 3.49 6.17 6.17 1.467 2.687 2.2 5.947 2.2 9.78v0c0 3.733-0.75 7-2.25 9.8-1.5 2.8-3.59 4.983-6.27 6.55-2.687 1.567-5.747 2.35-9.18 2.35v0c-3.533 0-6.623-0.717-9.27-2.15-2.653-1.433-4.713-3.5-6.18-6.2-1.467-2.7-2.2-5.95-2.2-9.75v0c0-3.733 0.76-7 2.28-9.8 1.513-2.8 3.597-4.983 6.25-6.55 2.647-1.567 5.703-2.35 9.17-2.35zM48.85-35.2v0c-1.867 0-3.49 0.75-4.87 2.25-1.387 1.5-2.453 3.567-3.2 6.2-0.753 2.633-1.13 5.683-1.13 9.15v0c0 3.533 0.427 6.607 1.28 9.22 0.847 2.62 1.997 4.637 3.45 6.05 1.447 1.42 3.053 2.13 4.82 2.13v0c1.867 0 3.493-0.75 4.88-2.25 1.38-1.5 2.447-3.577 3.2-6.23 0.747-2.647 1.12-5.687 1.12-9.12v0c0-3.567-0.423-6.65-1.27-9.25-0.853-2.6-2.003-4.61-3.45-6.03-1.453-1.413-3.063-2.12-4.83-2.12zM70.15-34.4v-1c0.833 0.033 1.96 0.067 3.38 0.1 1.413 0.033 2.82 0.05 4.22 0.05v0c1.6 0 3.15-0.017 4.65-0.05 1.5-0.033 2.567-0.05 3.2-0.05v0c4.633 0 8.1 0.917 10.4 2.75 2.3 1.833 3.45 4.2 3.45 7.1v0c0 1.2-0.233 2.457-0.7 3.77-0.467 1.32-1.257 2.54-2.37 3.66-1.12 1.113-2.647 2.02-4.58 2.72-1.933 0.7-4.367 1.05-7.3 1.05v0h-5.1v-1h4.6c1.967 0 3.46-0.45 4.48-1.35 1.013-0.9 1.713-2.083 2.1-3.55 0.38-1.467 0.57-3.05 0.57-4.75v0c0-3.167-0.467-5.533-1.4-7.1-0.933-1.567-2.533-2.35-4.8-2.35v0c-1.3 0-2.14 0.283-2.52 0.85-0.387 0.567-0.58 1.717-0.58 3.45v0 24.5c0 1.3 0.133 2.267 0.4 2.9 0.267 0.633 0.783 1.05 1.55 1.25 0.767 0.2 1.9 0.317 3.4 0.35v0 1.1c-1.033-0.033-2.367-0.067-4-0.1-1.633-0.033-3.35-0.05-5.15-0.05v0c-1.433 0-2.833 0.017-4.2 0.05-1.367 0.033-2.6 0.067-3.7 0.1v0-1c1.067-0.067 1.867-0.2 2.4-0.4 0.533-0.2 0.893-0.6 1.08-1.2 0.18-0.6 0.27-1.5 0.27-2.7v0-24.8c0-1.233-0.09-2.143-0.27-2.73-0.187-0.58-0.553-0.977-1.1-1.19-0.553-0.22-1.347-0.347-2.38-0.38zM123.15 0v0-1c1.067-0.067 1.867-0.2 2.4-0.4 0.533-0.2 0.893-0.6 1.08-1.2 0.18-0.6 0.27-1.5 0.27-2.7v0-24.8c0-1.233-0.09-2.143-0.27-2.73-0.187-0.58-0.553-0.977-1.1-1.19-0.553-0.22-1.347-0.347-2.38-0.38v0-1c0.9 0.033 2.073 0.067 3.52 0.1 1.453 0.033 2.897 0.05 4.33 0.05v0c1.533 0 2.973-0.017 4.32-0.05 1.353-0.033 2.447-0.067 3.28-0.1v0 1c-1.067 0.033-1.873 0.16-2.42 0.38-0.553 0.213-0.913 0.61-1.08 1.19-0.167 0.587-0.25 1.497-0.25 2.73v0 24.8c0 1.2 0.093 2.1 0.28 2.7 0.18 0.6 0.537 1 1.07 1.2 0.533 0.2 1.333 0.333 2.4 0.4v0 1c-0.833-0.067-1.927-0.11-3.28-0.13-1.347-0.013-2.787-0.02-4.32-0.02v0c-1.433 0-2.877 0.007-4.33 0.02-1.447 0.02-2.62 0.063-3.52 0.13zM101.95 0v0-1c1.067-0.067 1.867-0.2 2.4-0.4 0.533-0.2 0.89-0.6 1.07-1.2 0.187-0.6 0.28-1.5 0.28-2.7v0-24.8c0-1.233-0.093-2.143-0.28-2.73-0.18-0.58-0.543-0.977-1.09-1.19-0.553-0.22-1.347-0.347-2.38-0.38v0-1c0.867 0.033 1.993 0.067 3.38 0.1 1.38 0.033 2.887 0.05 4.52 0.05v0c1.4 0 2.783-0.017 4.15-0.05 1.367-0.033 2.5-0.067 3.4-0.1v0 1c-1.067 0.033-1.877 0.16-2.43 0.38-0.547 0.213-0.903 0.61-1.07 1.19-0.167 0.587-0.25 1.497-0.25 2.73v0 24.8c0 1.2 0.09 2.1 0.27 2.7 0.187 0.6 0.547 1 1.08 1.2 0.533 0.2 1.333 0.333 2.4 0.4v0 1c-0.9-0.067-2.033-0.11-3.4-0.13-1.367-0.013-2.75-0.02-4.15-0.02v0c-1.633 0-3.14 0.007-4.52 0.02-1.387 0.02-2.513 0.063-3.38 0.13zM130.15-17.3h-19.75v-1h19.75zM157.4-35.4v0 1c-1.067 0.033-1.877 0.16-2.43 0.38-0.547 0.213-0.903 0.61-1.07 1.19-0.167 0.587-0.25 1.497-0.25 2.73v0 24.8c0 1.2 0.093 2.1 0.28 2.7 0.18 0.6 0.537 1 1.07 1.2 0.533 0.2 1.333 0.333 2.4 0.4v0 1c-0.9-0.067-2.033-0.11-3.4-0.13-1.367-0.013-2.75-0.02-4.15-0.02v0c-1.633 0-3.143 0.007-4.53 0.02-1.38 0.02-2.503 0.063-3.37 0.13v0-1c1.067-0.067 1.867-0.2 2.4-0.4 0.533-0.2 0.893-0.6 1.08-1.2 0.18-0.6 0.27-1.5 0.27-2.7v0-24.8c0-1.233-0.09-2.143-0.27-2.73-0.187-0.58-0.557-0.977-1.11-1.19-0.547-0.22-1.337-0.347-2.37-0.38v0-1c0.867 0.033 1.99 0.067 3.37 0.1 1.387 0.033 2.897 0.05 4.53 0.05v0c1.4 0 2.783-0.017 4.15-0.05 1.367-0.033 2.5-0.067 3.4-0.1zM187.5-35.4v0c-0.133 1.467-0.223 2.883-0.27 4.25-0.053 1.367-0.08 2.417-0.08 3.15v0c0 0.667 0.017 1.3 0.05 1.9 0.033 0.6 0.067 1.1 0.1 1.5v0h-1.15c-0.333-2.433-0.85-4.36-1.55-5.78-0.7-1.413-1.607-2.413-2.72-3-1.12-0.58-2.43-0.87-3.93-0.87v0h-2.05c-1 0-1.74 0.083-2.22 0.25-0.487 0.167-0.813 0.493-0.98 0.98-0.167 0.48-0.25 1.253-0.25 2.32v0 26c0 1.033 0.083 1.8 0.25 2.3 0.167 0.5 0.493 0.833 0.98 1 0.48 0.167 1.22 0.25 2.22 0.25v0h2.45c1.5 0 2.827-0.327 3.98-0.98 1.147-0.647 2.13-1.753 2.95-3.32 0.813-1.567 1.437-3.683 1.87-6.35v0h1.15c-0.1 1.067-0.15 2.467-0.15 4.2v0c0 0.767 0.017 1.85 0.05 3.25 0.033 1.4 0.133 2.85 0.3 4.35v0c-1.7-0.067-3.617-0.11-5.75-0.13-2.133-0.013-4.033-0.02-5.7-0.02v0c-1.133 0-2.633 0-4.5 0-1.867 0-3.85 0.007-5.95 0.02-2.1 0.02-4.05 0.063-5.85 0.13v0-1c1.067-0.067 1.867-0.2 2.4-0.4 0.533-0.2 0.893-0.6 1.08-1.2 0.18-0.6 0.27-1.5 0.27-2.7v0-24.8c0-1.233-0.09-2.143-0.27-2.73-0.187-0.58-0.553-0.977-1.1-1.19-0.553-0.22-1.347-0.347-2.38-0.38v0-1c1.8 0.033 3.75 0.067 5.85 0.1 2.1 0.033 4.083 0.05 5.95 0.05 1.867 0 3.367 0 4.5 0v0c1.533 0 3.277-0.007 5.23-0.02 1.947-0.02 3.687-0.063 5.22-0.13zM170.95-18.3h8.75c0 0 0 0.167 0 0.5 0 0.333 0 0.5 0 0.5v0h-8.75c0 0 0-0.167 0-0.5 0-0.333 0-0.5 0-0.5zM180-24.9h1.15c-0.133 1.9-0.19 3.35-0.17 4.35 0.013 1 0.02 1.917 0.02 2.75v0c0 0.833 0.017 1.75 0.05 2.75 0.033 1 0.117 2.45 0.25 4.35v0h-1.15c-0.167-1.167-0.473-2.25-0.92-3.25-0.453-1-1.097-1.81-1.93-2.43-0.833-0.613-1.917-0.92-3.25-0.92v0-1c1.333 0 2.4-0.367 3.2-1.1 0.8-0.733 1.417-1.61 1.85-2.63 0.433-1.013 0.733-1.97 0.9-2.87zM204.95-36.05v0c1.967 0 3.483 0.207 4.55 0.62 1.067 0.42 1.983 0.863 2.75 1.33v0c0.4 0.233 0.723 0.407 0.97 0.52 0.253 0.12 0.497 0.18 0.73 0.18v0c0.533 0 0.9-0.733 1.1-2.2v0h1.15c-0.033 0.633-0.077 1.39-0.13 2.27-0.047 0.887-0.08 2.047-0.1 3.48-0.013 1.433-0.02 3.317-0.02 5.65v0h-1.15c-0.133-1.733-0.533-3.417-1.2-5.05-0.667-1.633-1.607-2.973-2.82-4.02-1.22-1.053-2.713-1.58-4.48-1.58v0c-1.6 0-2.917 0.45-3.95 1.35-1.033 0.9-1.55 2.15-1.55 3.75v0c0 1.333 0.333 2.473 1 3.42 0.667 0.953 1.64 1.88 2.92 2.78 1.287 0.9 2.847 1.983 4.68 3.25v0c1.6 1.033 3.033 2.067 4.3 3.1 1.267 1.033 2.283 2.2 3.05 3.5 0.767 1.3 1.15 2.85 1.15 4.65v0c0 2.2-0.573 4.017-1.72 5.45-1.153 1.433-2.663 2.507-4.53 3.22-1.867 0.72-3.917 1.08-6.15 1.08v0c-2.067 0-3.717-0.2-4.95-0.6-1.233-0.4-2.267-0.817-3.1-1.25v0c-0.733-0.467-1.3-0.7-1.7-0.7v0c-0.533 0-0.9 0.733-1.1 2.2v0h-1.15c0.067-0.8 0.11-1.733 0.13-2.8 0.013-1.067 0.03-2.46 0.05-4.18 0.013-1.713 0.02-3.887 0.02-6.52v0h1.15c0.133 2.2 0.507 4.257 1.12 6.17 0.62 1.92 1.57 3.463 2.85 4.63 1.287 1.167 2.997 1.75 5.13 1.75v0c1.733 0 3.2-0.467 4.4-1.4 1.2-0.933 1.8-2.333 1.8-4.2v0c0-2.067-0.7-3.777-2.1-5.13-1.4-1.347-3.2-2.737-5.4-4.17v0c-1.567-1.033-3.033-2.067-4.4-3.1-1.367-1.033-2.46-2.217-3.28-3.55-0.813-1.333-1.22-2.917-1.22-4.75v0c0-2.1 0.523-3.827 1.57-5.18 1.053-1.347 2.437-2.347 4.15-3 1.72-0.647 3.547-0.97 5.48-0.97z" fill="#ffffff" fill-rule="nonzero" stroke="none" stroke-width="1" stroke-linecap="butt" stroke-linejoin="miter" stroke-miterlimit="10" stroke-dasharray="" stroke-dashoffset="0" font-family="none" font-weight="none" font-size="none" text-anchor="none" style="mix-blend-mode: normal" data-fill-palette-color="primary" opacity="1"></path><path transform="translate(0,39.8)" d="M14.2-36.05v0c1.967 0 3.483 0.207 4.55 0.62 1.067 0.42 1.983 0.863 2.75 1.33v0c0.4 0.233 0.727 0.407 0.98 0.52 0.247 0.12 0.487 0.18 0.72 0.18v0c0.533 0 0.9-0.733 1.1-2.2v0h1.15c-0.033 0.633-0.073 1.39-0.12 2.27-0.053 0.887-0.087 2.047-0.1 3.48-0.02 1.433-0.03 3.317-0.03 5.65v0h-1.15c-0.133-1.733-0.533-3.417-1.2-5.05-0.667-1.633-1.607-2.973-2.82-4.02-1.22-1.053-2.713-1.58-4.48-1.58v0c-1.6 0-2.917 0.45-3.95 1.35-1.033 0.9-1.55 2.15-1.55 3.75v0c0 1.333 0.333 2.473 1 3.42 0.667 0.953 1.643 1.88 2.93 2.78 1.28 0.9 2.837 1.983 4.67 3.25v0c1.6 1.033 3.033 2.067 4.3 3.1 1.267 1.033 2.283 2.2 3.05 3.5 0.767 1.3 1.15 2.85 1.15 4.65v0c0 2.2-0.573 4.017-1.72 5.45-1.153 1.433-2.663 2.507-4.53 3.22-1.867 0.72-3.917 1.08-6.15 1.08v0c-2.067 0-3.717-0.2-4.95-0.6-1.233-0.4-2.267-0.817-3.1-1.25v0c-0.733-0.467-1.3-0.7-1.7-0.7v0c-0.533 0-0.9 0.733-1.1 2.2v0h-1.15c0.067-0.8 0.11-1.733 0.13-2.8 0.013-1.067 0.03-2.46 0.05-4.18 0.013-1.713 0.02-3.887 0.02-6.52v0h1.15c0.133 2.2 0.51 4.257 1.13 6.17 0.613 1.92 1.563 3.463 2.85 4.63 1.28 1.167 2.987 1.75 5.12 1.75v0c1.733 0 3.2-0.467 4.4-1.4 1.2-0.933 1.8-2.333 1.8-4.2v0c0-2.067-0.7-3.777-2.1-5.13-1.4-1.347-3.2-2.737-5.4-4.17v0c-1.567-1.033-3.033-2.067-4.4-3.1-1.367-1.033-2.457-2.217-3.27-3.55-0.82-1.333-1.23-2.917-1.23-4.75v0c0-2.1 0.527-3.827 1.58-5.18 1.047-1.347 2.427-2.347 4.14-3 1.72-0.647 3.547-0.97 5.48-0.97zM77.5-35.4v0 1c-0.733 0.267-1.5 0.84-2.3 1.72-0.8 0.887-1.5 2.297-2.1 4.23v0l-8.8 28.55c-0.267-0.033-0.55-0.05-0.85-0.05-0.3 0-0.6 0-0.9 0v0c-0.3 0-0.6 0-0.9 0-0.3 0-0.583 0.017-0.85 0.05v0l-10.5-31.8c-0.333-1.033-0.74-1.733-1.22-2.1-0.487-0.367-0.997-0.567-1.53-0.6v0-1c0.933 0.033 2.043 0.067 3.33 0.1 1.28 0.033 2.553 0.05 3.82 0.05v0c1.467 0 2.843-0.017 4.13-0.05 1.28-0.033 2.303-0.067 3.07-0.1v0 1c-1 0.033-1.79 0.15-2.37 0.35-0.587 0.2-0.92 0.583-1 1.15-0.087 0.567 0.07 1.467 0.47 2.7v0l7.1 21.7-1.15 2.05 5.65-17.95c0.8-2.533 1.183-4.517 1.15-5.95-0.033-1.433-0.417-2.46-1.15-3.08-0.733-0.613-1.783-0.937-3.15-0.97v0-1c1.133 0.033 2.2 0.067 3.2 0.1 1 0.033 2 0.05 3 0.05v0c0.767 0 1.477-0.017 2.13-0.05 0.647-0.033 1.22-0.067 1.72-0.1zM41.8-35.4v0 1c-0.667 0.1-1.133 0.34-1.4 0.72-0.267 0.387-0.373 0.887-0.32 1.5 0.047 0.62 0.187 1.28 0.42 1.98v0l7.65 22.2-1.35 1.8 6.4-18.7 0.7 1.35-7.85 23.65c-0.267-0.033-0.55-0.05-0.85-0.05-0.3 0-0.6 0-0.9 0v0c-0.3 0-0.6 0-0.9 0-0.3 0-0.583 0.017-0.85 0.05v0l-11.2-31.3c-0.433-1.233-0.94-2.067-1.52-2.5-0.587-0.433-1.13-0.667-1.63-0.7v0-1c1 0.033 2.183 0.067 3.55 0.1 1.367 0.033 2.667 0.05 3.9 0.05v0c1.333 0 2.527-0.017 3.58-0.05 1.047-0.033 1.903-0.067 2.57-0.1zM105.65-35.4v0c-0.133 1.467-0.223 2.883-0.27 4.25-0.053 1.367-0.08 2.417-0.08 3.15v0c0 0.667 0.017 1.3 0.05 1.9 0.033 0.6 0.067 1.1 0.1 1.5v0h-1.15c-0.333-2.433-0.85-4.36-1.55-5.78-0.7-1.413-1.607-2.413-2.72-3-1.12-0.58-2.43-0.87-3.93-0.87v0h-2.05c-1 0-1.74 0.083-2.22 0.25-0.487 0.167-0.813 0.493-0.98 0.98-0.167 0.48-0.25 1.253-0.25 2.32v0 26c0 1.033 0.083 1.8 0.25 2.3 0.167 0.5 0.493 0.833 0.98 1 0.48 0.167 1.22 0.25 2.22 0.25v0h2.45c1.5 0 2.827-0.327 3.98-0.98 1.147-0.647 2.13-1.753 2.95-3.32 0.813-1.567 1.437-3.683 1.87-6.35v0h1.15c-0.1 1.067-0.15 2.467-0.15 4.2v0c0 0.767 0.017 1.85 0.05 3.25 0.033 1.4 0.133 2.85 0.3 4.35v0c-1.7-0.067-3.617-0.11-5.75-0.13-2.133-0.013-4.033-0.02-5.7-0.02v0c-1.133 0-2.633 0-4.5 0-1.867 0-3.85 0.007-5.95 0.02-2.1 0.02-4.05 0.063-5.85 0.13v0-1c1.067-0.067 1.867-0.2 2.4-0.4 0.533-0.2 0.893-0.6 1.08-1.2 0.18-0.6 0.27-1.5 0.27-2.7v0-24.8c0-1.233-0.09-2.143-0.27-2.73-0.187-0.58-0.553-0.977-1.1-1.19-0.553-0.22-1.347-0.347-2.38-0.38v0-1c1.8 0.033 3.75 0.067 5.85 0.1 2.1 0.033 4.083 0.05 5.95 0.05 1.867 0 3.367 0 4.5 0v0c1.533 0 3.277-0.007 5.23-0.02 1.947-0.02 3.687-0.063 5.22-0.13zM89.1-18.3h8.75c0 0 0 0.167 0 0.5 0 0.333 0 0.5 0 0.5v0h-8.75c0 0 0-0.167 0-0.5 0-0.333 0-0.5 0-0.5zM98.15-24.9h1.15c-0.133 1.9-0.19 3.35-0.17 4.35 0.013 1 0.02 1.917 0.02 2.75v0c0 0.833 0.017 1.75 0.05 2.75 0.033 1 0.117 2.45 0.25 4.35v0h-1.15c-0.167-1.167-0.473-2.25-0.92-3.25-0.453-1-1.097-1.81-1.93-2.43-0.833-0.613-1.917-0.92-3.25-0.92v0-1c1.333 0 2.4-0.367 3.2-1.1 0.8-0.733 1.417-1.61 1.85-2.63 0.433-1.013 0.733-1.97 0.9-2.87zM137.35-35.4v0c-0.133 1.467-0.223 2.883-0.27 4.25-0.053 1.367-0.08 2.417-0.08 3.15v0c0 0.667 0.017 1.3 0.05 1.9 0.033 0.6 0.067 1.1 0.1 1.5v0h-1.15c-0.333-2.433-0.85-4.36-1.55-5.78-0.7-1.413-1.607-2.413-2.72-3-1.12-0.58-2.43-0.87-3.93-0.87v0h-2.05c-1 0-1.74 0.083-2.22 0.25-0.487 0.167-0.813 0.493-0.98 0.98-0.167 0.48-0.25 1.253-0.25 2.32v0 26c0 1.033 0.083 1.8 0.25 2.3 0.167 0.5 0.493 0.833 0.98 1 0.48 0.167 1.22 0.25 2.22 0.25v0h2.45c1.5 0 2.827-0.327 3.98-0.98 1.147-0.647 2.13-1.753 2.95-3.32 0.813-1.567 1.437-3.683 1.87-6.35v0h1.15c-0.1 1.067-0.15 2.467-0.15 4.2v0c0 0.767 0.017 1.85 0.05 3.25 0.033 1.4 0.133 2.85 0.3 4.35v0c-1.7-0.067-3.617-0.11-5.75-0.13-2.133-0.013-4.033-0.02-5.7-0.02v0c-1.133 0-2.633 0-4.5 0-1.867 0-3.85 0.007-5.95 0.02-2.1 0.02-4.05 0.063-5.85 0.13v0-1c1.067-0.067 1.867-0.2 2.4-0.4 0.533-0.2 0.893-0.6 1.08-1.2 0.18-0.6 0.27-1.5 0.27-2.7v0-24.8c0-1.233-0.09-2.143-0.27-2.73-0.187-0.58-0.553-0.977-1.1-1.19-0.553-0.22-1.347-0.347-2.38-0.38v0-1c1.8 0.033 3.75 0.067 5.85 0.1 2.1 0.033 4.083 0.05 5.95 0.05 1.867 0 3.367 0 4.5 0v0c1.533 0 3.277-0.007 5.23-0.02 1.947-0.02 3.687-0.063 5.22-0.13zM120.8-18.3h8.75c0 0 0 0.167 0 0.5 0 0.333 0 0.5 0 0.5v0h-8.75c0 0 0-0.167 0-0.5 0-0.333 0-0.5 0-0.5zM129.85-24.9h1.15c-0.133 1.9-0.19 3.35-0.17 4.35 0.013 1 0.02 1.917 0.02 2.75v0c0 0.833 0.017 1.75 0.05 2.75 0.033 1 0.117 2.45 0.25 4.35v0h-1.15c-0.167-1.167-0.473-2.25-0.92-3.25-0.453-1-1.097-1.81-1.93-2.43-0.833-0.613-1.917-0.92-3.25-0.92v0-1c1.333 0 2.4-0.367 3.2-1.1 0.8-0.733 1.417-1.61 1.85-2.63 0.433-1.013 0.733-1.97 0.9-2.87zM172.7-35.4v0c-0.133 1.7-0.223 3.333-0.27 4.9-0.053 1.567-0.08 2.767-0.08 3.6v0c0 0.733 0.017 1.433 0.05 2.1 0.033 0.667 0.067 1.233 0.1 1.7v0h-1.15c-0.533-2.8-1.207-5.017-2.02-6.65-0.82-1.633-1.797-2.793-2.93-3.48-1.133-0.68-2.467-1.02-4-1.02v0h-1.15v28.55c0 1.333 0.143 2.333 0.43 3 0.28 0.667 0.803 1.107 1.57 1.32 0.767 0.22 1.883 0.347 3.35 0.38v0 1c-1.033-0.033-2.407-0.067-4.12-0.1-1.72-0.033-3.513-0.05-5.38-0.05v0c-1.833 0-3.567 0.017-5.2 0.05-1.633 0.033-2.95 0.067-3.95 0.1v0-1c1.5-0.033 2.633-0.16 3.4-0.38 0.767-0.213 1.283-0.653 1.55-1.32 0.267-0.667 0.4-1.667 0.4-3v0-28.55h-1.1c-1.533 0-2.867 0.34-4 1.02-1.133 0.687-2.1 1.837-2.9 3.45-0.8 1.62-1.5 3.847-2.1 6.68v0h-1.15c0.067-0.467 0.11-1.033 0.13-1.7 0.013-0.667 0.02-1.367 0.02-2.1v0c0-0.833-0.023-2.033-0.07-3.6-0.053-1.567-0.147-3.2-0.28-4.9v0c1.533 0.033 3.21 0.067 5.03 0.1 1.813 0.033 3.637 0.05 5.47 0.05 1.833 0 3.483 0 4.95 0v0c1.5 0 3.16 0 4.98 0 1.813 0 3.637-0.017 5.47-0.05 1.833-0.033 3.483-0.067 4.95-0.1zM201-35.5v0c1.3 0 2.35 0.09 3.15 0.27 0.8 0.187 1.483 0.447 2.05 0.78v0c0.767 0.367 1.467 0.883 2.1 1.55 0.633 0.667 0.95 1.5 0.95 2.5v0c0 1-0.383 1.8-1.15 2.4-0.767 0.6-1.667 0.9-2.7 0.9v0c-1 0-1.857-0.25-2.57-0.75-0.72-0.5-1.08-1.283-1.08-2.35v0c0-0.833 0.3-1.593 0.9-2.28 0.6-0.68 1.367-1.103 2.3-1.27v0c-0.233-0.267-0.657-0.483-1.27-0.65-0.62-0.167-1.297-0.25-2.03-0.25v0c-1.733 0-3.207 0.543-4.42 1.63-1.22 1.08-1.83 2.72-1.83 4.92v0c0 0.767 0.133 1.583 0.4 2.45 0.267 0.867 0.783 1.75 1.55 2.65v0c0.567-0.133 1.093-0.233 1.58-0.3 0.48-0.067 0.887-0.1 1.22-0.1v0c1.233 0 1.85 0.45 1.85 1.35v0c0 0.3-0.133 0.55-0.4 0.75-0.267 0.2-0.6 0.3-1 0.3v0c-0.567 0-1.15-0.16-1.75-0.48-0.6-0.313-1.083-0.587-1.45-0.82v0c-1.567 0.8-2.84 1.823-3.82 3.07-0.987 1.253-1.48 2.93-1.48 5.03v0c0 2.2 0.6 4.007 1.8 5.42 1.2 1.42 2.893 2.487 5.08 3.2 2.18 0.72 4.753 1.08 7.72 1.08v0c1.667 0 3.317-0.183 4.95-0.55 1.633-0.367 3.11-0.917 4.43-1.65 1.313-0.733 2.37-1.643 3.17-2.73 0.8-1.08 1.2-2.337 1.2-3.77v0c0-0.533-0.073-1.21-0.22-2.03-0.153-0.813-0.513-1.63-1.08-2.45-0.567-0.813-1.5-1.487-2.8-2.02v0l0.35-0.45c1.8 0.567 3.167 1.633 4.1 3.2 0.933 1.567 1.4 3.367 1.4 5.4v0c0 2.333-0.717 4.423-2.15 6.27-1.433 1.853-3.44 3.313-6.02 4.38-2.587 1.067-5.613 1.6-9.08 1.6v0c-3.667 0-6.883-0.5-9.65-1.5-2.767-1-4.917-2.433-6.45-4.3-1.533-1.867-2.3-4.083-2.3-6.65v0c0-1.867 0.393-3.46 1.18-4.78 0.78-1.313 1.737-2.397 2.87-3.25 1.133-0.847 2.267-1.503 3.4-1.97 1.133-0.467 2.033-0.783 2.7-0.95v0c-1.567-0.633-2.9-1.46-4-2.48-1.1-1.013-1.65-2.287-1.65-3.82v0c0-1.067 0.283-2.01 0.85-2.83 0.567-0.813 1.327-1.487 2.28-2.02 0.947-0.533 2.013-0.943 3.2-1.23 1.18-0.28 2.387-0.42 3.62-0.42zM220.65-36.1v0c2.367 0 4.283 0.617 5.75 1.85 1.467 1.233 2.2 2.967 2.2 5.2v0c0 2.567-0.907 4.523-2.72 5.87-1.82 1.353-4.297 2.363-7.43 3.03v0c-0.467 0.167-1.05 0.357-1.75 0.57-0.7 0.22-1.417 0.43-2.15 0.63-0.733 0.2-1.44 0.4-2.12 0.6-0.687 0.2-1.28 0.367-1.78 0.5v0c-2.6 0.567-4.6 1.207-6 1.92-1.4 0.72-2.1 1.697-2.1 2.93v0c0 0.833 0.277 1.55 0.83 2.15 0.547 0.6 1.237 1.067 2.07 1.4 0.833 0.333 1.667 0.5 2.5 0.5v0c0.333 0 0.71-0.043 1.13-0.13 0.413-0.08 0.703-0.203 0.87-0.37v0c-0.833-0.267-1.457-0.693-1.87-1.28-0.42-0.58-0.63-1.253-0.63-2.02v0c0-1.067 0.383-1.883 1.15-2.45 0.767-0.567 1.717-0.85 2.85-0.85v0c1.2 0 2.143 0.317 2.83 0.95 0.68 0.633 1.02 1.45 1.02 2.45v0c0 1.033-0.317 1.89-0.95 2.57-0.633 0.687-1.483 1.187-2.55 1.5-1.067 0.32-2.267 0.48-3.6 0.48v0c-1.3 0-2.523-0.233-3.67-0.7-1.153-0.467-2.07-1.177-2.75-2.13-0.687-0.947-1.03-2.137-1.03-3.57v0c0-2.6 1-4.617 3-6.05 2-1.433 4.733-2.483 8.2-3.15v0c0.7-0.167 1.477-0.36 2.33-0.58 0.847-0.213 1.72-0.437 2.62-0.67 0.9-0.233 1.733-0.483 2.5-0.75v0c2.4-0.6 4.26-1.267 5.58-2 1.313-0.733 1.97-1.717 1.97-2.95v0c0-1.367-0.59-2.467-1.77-3.3-1.187-0.833-2.48-1.25-3.88-1.25v0c-0.3 0-0.573 0.017-0.82 0.05-0.253 0.033-0.463 0.1-0.63 0.2v0c0.833 0.3 1.45 0.75 1.85 1.35 0.4 0.6 0.6 1.2 0.6 1.8v0c0 1.033-0.383 1.823-1.15 2.37-0.767 0.553-1.717 0.83-2.85 0.83v0c-1.133 0-2.067-0.293-2.8-0.88-0.733-0.58-1.1-1.387-1.1-2.42v0c0-0.9 0.26-1.66 0.78-2.28 0.513-0.613 1.237-1.087 2.17-1.42 0.933-0.333 2.033-0.5 3.3-0.5z" fill="#ffffff" fill-rule="nonzero" stroke="none" stroke-width="1" stroke-linecap="butt" stroke-linejoin="miter" stroke-miterlimit="10" stroke-dasharray="" stroke-dashoffset="0" font-family="none" font-weight="none" font-size="none" text-anchor="none" style="mix-blend-mode: normal" data-fill-palette-color="primary" opacity="1"></path><path transform="translate(0,79.6)" d="M14.2-36.05v0c1.967 0 3.483 0.207 4.55 0.62 1.067 0.42 1.983 0.863 2.75 1.33v0c0.4 0.233 0.727 0.407 0.98 0.52 0.247 0.12 0.487 0.18 0.72 0.18v0c0.533 0 0.9-0.733 1.1-2.2v0h1.15c-0.033 0.633-0.073 1.39-0.12 2.27-0.053 0.887-0.087 2.047-0.1 3.48-0.02 1.433-0.03 3.317-0.03 5.65v0h-1.15c-0.133-1.733-0.533-3.417-1.2-5.05-0.667-1.633-1.607-2.973-2.82-4.02-1.22-1.053-2.713-1.58-4.48-1.58v0c-1.6 0-2.917 0.45-3.95 1.35-1.033 0.9-1.55 2.15-1.55 3.75v0c0 1.333 0.333 2.473 1 3.42 0.667 0.953 1.643 1.88 2.93 2.78 1.28 0.9 2.837 1.983 4.67 3.25v0c1.6 1.033 3.033 2.067 4.3 3.1 1.267 1.033 2.283 2.2 3.05 3.5 0.767 1.3 1.15 2.85 1.15 4.65v0c0 2.2-0.573 4.017-1.72 5.45-1.153 1.433-2.663 2.507-4.53 3.22-1.867 0.72-3.917 1.08-6.15 1.08v0c-2.067 0-3.717-0.2-4.95-0.6-1.233-0.4-2.267-0.817-3.1-1.25v0c-0.733-0.467-1.3-0.7-1.7-0.7v0c-0.533 0-0.9 0.733-1.1 2.2v0h-1.15c0.067-0.8 0.11-1.733 0.13-2.8 0.013-1.067 0.03-2.46 0.05-4.18 0.013-1.713 0.02-3.887 0.02-6.52v0h1.15c0.133 2.2 0.51 4.257 1.13 6.17 0.613 1.92 1.563 3.463 2.85 4.63 1.28 1.167 2.987 1.75 5.12 1.75v0c1.733 0 3.2-0.467 4.4-1.4 1.2-0.933 1.8-2.333 1.8-4.2v0c0-2.067-0.7-3.777-2.1-5.13-1.4-1.347-3.2-2.737-5.4-4.17v0c-1.567-1.033-3.033-2.067-4.4-3.1-1.367-1.033-2.457-2.217-3.27-3.55-0.82-1.333-1.23-2.917-1.23-4.75v0c0-2.1 0.527-3.827 1.58-5.18 1.047-1.347 2.427-2.347 4.14-3 1.72-0.647 3.547-0.97 5.48-0.97zM46.95-35.5v0l12.15 31.3c0.467 1.2 0.993 2.023 1.58 2.47 0.58 0.453 1.103 0.697 1.57 0.73v0 1c-1-0.067-2.173-0.11-3.52-0.13-1.353-0.013-2.713-0.02-4.08-0.02v0c-1.533 0-2.983 0.007-4.35 0.02-1.367 0.02-2.45 0.063-3.25 0.13v0-1c1.7-0.067 2.777-0.36 3.23-0.88 0.447-0.513 0.337-1.62-0.33-3.32v0l-8.5-23.25 0.9-1.3-7.6 19.8c-0.933 2.467-1.39 4.333-1.37 5.6 0.013 1.267 0.42 2.123 1.22 2.57 0.8 0.453 1.867 0.713 3.2 0.78v0 1c-1.1-0.067-2.15-0.11-3.15-0.13-1-0.013-2.017-0.02-3.05-0.02v0c-0.733 0-1.423 0.007-2.07 0.02-0.653 0.02-1.23 0.063-1.73 0.13v0-1c0.7-0.133 1.417-0.583 2.15-1.35 0.733-0.767 1.45-2.067 2.15-3.9v0l11.4-29.25c0.533 0.033 1.11 0.05 1.73 0.05 0.613 0 1.187-0.017 1.72-0.05zM36.05-14.4h14.4v1h-14.9zM92.1-35.4v0 1c-0.733 0.267-1.507 0.85-2.32 1.75-0.82 0.9-1.58 2.3-2.28 4.2v0l-10.55 28.55c-0.267-0.033-0.55-0.05-0.85-0.05-0.3 0-0.6 0-0.9 0v0c-0.267 0-0.55 0-0.85 0-0.3 0-0.583 0.017-0.85 0.05v0l-12.75-31.3c-0.467-1.2-0.983-2.027-1.55-2.48-0.567-0.447-1.1-0.687-1.6-0.72v0-1c1 0.033 2.177 0.067 3.53 0.1 1.347 0.033 2.703 0.05 4.07 0.05v0c1.533 0 2.977-0.017 4.33-0.05 1.347-0.033 2.437-0.067 3.27-0.1v0 1c-1.633 0.067-2.7 0.34-3.2 0.82-0.5 0.487-0.4 1.613 0.3 3.38v0l9.1 23.15-1.05 1.25 6.9-18.6c0.9-2.5 1.367-4.467 1.4-5.9 0.033-1.433-0.317-2.467-1.05-3.1-0.733-0.633-1.783-0.967-3.15-1v0-1c1.133 0.033 2.2 0.067 3.2 0.1 1 0.033 2.017 0.05 3.05 0.05v0c0.733 0 1.427-0.017 2.08-0.05 0.647-0.033 1.22-0.067 1.72-0.1zM110.2-36.1v0c3.533 0 6.623 0.717 9.27 2.15 2.653 1.433 4.713 3.49 6.18 6.17 1.467 2.687 2.2 5.947 2.2 9.78v0c0 3.733-0.75 7-2.25 9.8-1.5 2.8-3.593 4.983-6.28 6.55-2.68 1.567-5.737 2.35-9.17 2.35v0c-3.533 0-6.623-0.717-9.27-2.15-2.653-1.433-4.713-3.5-6.18-6.2-1.467-2.7-2.2-5.95-2.2-9.75v0c0-3.733 0.757-7 2.27-9.8 1.52-2.8 3.603-4.983 6.25-6.55 2.653-1.567 5.713-2.35 9.18-2.35zM110-35.2v0c-1.867 0-3.49 0.75-4.87 2.25-1.387 1.5-2.457 3.567-3.21 6.2-0.747 2.633-1.12 5.683-1.12 9.15v0c0 3.533 0.423 6.607 1.27 9.22 0.853 2.62 2.003 4.637 3.45 6.05 1.453 1.42 3.063 2.13 4.83 2.13v0c1.867 0 3.49-0.75 4.87-2.25 1.387-1.5 2.453-3.577 3.2-6.23 0.753-2.647 1.13-5.687 1.13-9.12v0c0-3.567-0.427-6.65-1.28-9.25-0.847-2.6-1.997-4.61-3.45-6.03-1.447-1.413-3.053-2.12-4.82-2.12zM131.3-34.4v-1c0.833 0.033 1.957 0.067 3.37 0.1 1.42 0.033 2.83 0.05 4.23 0.05v0c1.6 0 3.15-0.017 4.65-0.05 1.5-0.033 2.567-0.05 3.2-0.05v0c4.633 0 8.1 0.757 10.4 2.27 2.3 1.52 3.45 3.663 3.45 6.43v0c0 1.133-0.233 2.273-0.7 3.42-0.467 1.153-1.257 2.22-2.37 3.2-1.12 0.987-2.647 1.77-4.58 2.35-1.933 0.587-4.367 0.88-7.3 0.88v0h-4.8v-1h4.3c1.967 0 3.46-0.377 4.48-1.13 1.013-0.747 1.71-1.747 2.09-3 0.387-1.247 0.58-2.637 0.58-4.17v0c0-2.633-0.467-4.677-1.4-6.13-0.933-1.447-2.533-2.17-4.8-2.17v0c-1.3 0-2.143 0.283-2.53 0.85-0.38 0.567-0.57 1.717-0.57 3.45v0 24.8c0 1.2 0.093 2.1 0.28 2.7 0.18 0.6 0.537 1 1.07 1.2 0.533 0.2 1.333 0.333 2.4 0.4v0 1c-0.9-0.067-2.033-0.11-3.4-0.13-1.367-0.013-2.75-0.02-4.15-0.02v0c-1.6 0-3.11 0.007-4.53 0.02-1.413 0.02-2.537 0.063-3.37 0.13v0-1c1.067-0.067 1.867-0.2 2.4-0.4 0.533-0.2 0.893-0.6 1.08-1.2 0.18-0.6 0.27-1.5 0.27-2.7v0-24.8c0-1.233-0.09-2.143-0.27-2.73-0.187-0.58-0.557-0.977-1.11-1.19-0.547-0.22-1.337-0.347-2.37-0.38zM140.85-16.8l-0.1-0.85c1.433 0.033 2.673 0.1 3.72 0.2 1.053 0.1 1.98 0.19 2.78 0.27 0.8 0.087 1.517 0.147 2.15 0.18v0c3.033 0.267 5.277 0.917 6.73 1.95 1.447 1.033 2.387 2.583 2.82 4.65v0l1.15 5.15c0.3 1.333 0.617 2.267 0.95 2.8 0.333 0.533 0.817 0.8 1.45 0.8v0c0.433-0.033 0.79-0.143 1.07-0.33 0.287-0.18 0.597-0.453 0.93-0.82v0l0.7 0.6c-0.9 1.033-1.867 1.777-2.9 2.23-1.033 0.447-2.283 0.67-3.75 0.67v0c-1.8 0-3.283-0.383-4.45-1.15-1.167-0.767-1.933-2.183-2.3-4.25v0l-0.9-5c-0.233-1.4-0.517-2.627-0.85-3.68-0.333-1.047-0.793-1.88-1.38-2.5-0.58-0.613-1.387-0.92-2.42-0.92v0zM181.35-35.4v0 1c-1.067 0.033-1.877 0.16-2.43 0.38-0.547 0.213-0.903 0.61-1.07 1.19-0.167 0.587-0.25 1.497-0.25 2.73v0 24.8c0 1.2 0.093 2.1 0.28 2.7 0.18 0.6 0.537 1 1.07 1.2 0.533 0.2 1.333 0.333 2.4 0.4v0 1c-0.9-0.067-2.033-0.11-3.4-0.13-1.367-0.013-2.75-0.02-4.15-0.02v0c-1.633 0-3.143 0.007-4.53 0.02-1.38 0.02-2.503 0.063-3.37 0.13v0-1c1.067-0.067 1.867-0.2 2.4-0.4 0.533-0.2 0.893-0.6 1.08-1.2 0.18-0.6 0.27-1.5 0.27-2.7v0-24.8c0-1.233-0.09-2.143-0.27-2.73-0.187-0.58-0.557-0.977-1.11-1.19-0.547-0.22-1.337-0.347-2.37-0.38v0-1c0.867 0.033 1.99 0.067 3.37 0.1 1.387 0.033 2.897 0.05 4.53 0.05v0c1.4 0 2.783-0.017 4.15-0.05 1.367-0.033 2.5-0.067 3.4-0.1zM211.45-35.4v0c-0.133 1.467-0.223 2.883-0.27 4.25-0.053 1.367-0.08 2.417-0.08 3.15v0c0 0.667 0.017 1.3 0.05 1.9 0.033 0.6 0.067 1.1 0.1 1.5v0h-1.15c-0.333-2.433-0.85-4.36-1.55-5.78-0.7-1.413-1.61-2.413-2.73-3-1.113-0.58-2.42-0.87-3.92-0.87v0h-2.05c-1 0-1.74 0.083-2.22 0.25-0.487 0.167-0.813 0.493-0.98 0.98-0.167 0.48-0.25 1.253-0.25 2.32v0 26c0 1.033 0.083 1.8 0.25 2.3 0.167 0.5 0.493 0.833 0.98 1 0.48 0.167 1.22 0.25 2.22 0.25v0h2.45c1.5 0 2.827-0.327 3.98-0.98 1.147-0.647 2.127-1.753 2.94-3.32 0.82-1.567 1.447-3.683 1.88-6.35v0h1.15c-0.1 1.067-0.15 2.467-0.15 4.2v0c0 0.767 0.017 1.85 0.05 3.25 0.033 1.4 0.133 2.85 0.3 4.35v0c-1.7-0.067-3.617-0.11-5.75-0.13-2.133-0.013-4.033-0.02-5.7-0.02v0c-1.133 0-2.633 0-4.5 0-1.867 0-3.85 0.007-5.95 0.02-2.1 0.02-4.05 0.063-5.85 0.13v0-1c1.067-0.067 1.867-0.2 2.4-0.4 0.533-0.2 0.893-0.6 1.08-1.2 0.18-0.6 0.27-1.5 0.27-2.7v0-24.8c0-1.233-0.09-2.143-0.27-2.73-0.187-0.58-0.557-0.977-1.11-1.19-0.547-0.22-1.337-0.347-2.37-0.38v0-1c1.8 0.033 3.75 0.067 5.85 0.1 2.1 0.033 4.083 0.05 5.95 0.05 1.867 0 3.367 0 4.5 0v0c1.533 0 3.273-0.007 5.22-0.02 1.953-0.02 3.697-0.063 5.23-0.13zM194.9-18.3h8.75c0 0 0 0.167 0 0.5 0 0.333 0 0.5 0 0.5v0h-8.75c0 0 0-0.167 0-0.5 0-0.333 0-0.5 0-0.5zM203.95-24.9h1.15c-0.133 1.9-0.19 3.35-0.17 4.35 0.013 1 0.02 1.917 0.02 2.75v0c0 0.833 0.017 1.75 0.05 2.75 0.033 1 0.117 2.45 0.25 4.35v0h-1.15c-0.167-1.167-0.473-2.25-0.92-3.25-0.453-1-1.097-1.81-1.93-2.43-0.833-0.613-1.917-0.92-3.25-0.92v0-1c1.333 0 2.4-0.367 3.2-1.1 0.8-0.733 1.417-1.61 1.85-2.63 0.433-1.013 0.733-1.97 0.9-2.87zM228.9-36.05v0c1.967 0 3.483 0.207 4.55 0.62 1.067 0.42 1.983 0.863 2.75 1.33v0c0.4 0.233 0.723 0.407 0.97 0.52 0.253 0.12 0.497 0.18 0.73 0.18v0c0.533 0 0.9-0.733 1.1-2.2v0h1.15c-0.033 0.633-0.077 1.39-0.13 2.27-0.047 0.887-0.08 2.047-0.1 3.48-0.013 1.433-0.02 3.317-0.02 5.65v0h-1.15c-0.133-1.733-0.533-3.417-1.2-5.05-0.667-1.633-1.61-2.973-2.83-4.02-1.213-1.053-2.703-1.58-4.47-1.58v0c-1.6 0-2.917 0.45-3.95 1.35-1.033 0.9-1.55 2.15-1.55 3.75v0c0 1.333 0.333 2.473 1 3.42 0.667 0.953 1.64 1.88 2.92 2.78 1.287 0.9 2.847 1.983 4.68 3.25v0c1.6 1.033 3.033 2.067 4.3 3.1 1.267 1.033 2.283 2.2 3.05 3.5 0.767 1.3 1.15 2.85 1.15 4.65v0c0 2.2-0.573 4.017-1.72 5.45-1.153 1.433-2.663 2.507-4.53 3.22-1.867 0.72-3.917 1.08-6.15 1.08v0c-2.067 0-3.717-0.2-4.95-0.6-1.233-0.4-2.267-0.817-3.1-1.25v0c-0.733-0.467-1.3-0.7-1.7-0.7v0c-0.533 0-0.9 0.733-1.1 2.2v0h-1.15c0.067-0.8 0.107-1.733 0.12-2.8 0.02-1.067 0.04-2.46 0.06-4.18 0.013-1.713 0.02-3.887 0.02-6.52v0h1.15c0.133 2.2 0.507 4.257 1.12 6.17 0.62 1.92 1.57 3.463 2.85 4.63 1.287 1.167 2.997 1.75 5.13 1.75v0c1.733 0 3.2-0.467 4.4-1.4 1.2-0.933 1.8-2.333 1.8-4.2v0c0-2.067-0.7-3.777-2.1-5.13-1.4-1.347-3.2-2.737-5.4-4.17v0c-1.567-1.033-3.033-2.067-4.4-3.1-1.367-1.033-2.46-2.217-3.28-3.55-0.813-1.333-1.22-2.917-1.22-4.75v0c0-2.1 0.523-3.827 1.57-5.18 1.053-1.347 2.437-2.347 4.15-3 1.72-0.647 3.547-0.97 5.48-0.97z" fill="#ffffff" fill-rule="nonzero" stroke="none" stroke-width="1" stroke-linecap="butt" stroke-linejoin="miter" stroke-miterlimit="10" stroke-dasharray="" stroke-dashoffset="0" font-family="none" font-weight="none" font-size="none" text-anchor="none" style="mix-blend-mode: normal" data-fill-palette-color="primary" opacity="1"></path></g></svg></g></svg></g></svg></g></svg></g><g transform="matrix(1,0,0,1,0,0.49377967377667176)"><svg viewBox="0 0 195.1278719866007 197.51186951066495" height="197.51186951066495" width="195.1278719866007"><g><svg xmlns="http://www.w3.org/2000/svg" xmlns:xlink="http://www.w3.org/1999/xlink" xmlns:a="http://ns.adobe.com/AdobeSVGViewerExtensions/3.0/" version="1.1" x="0" y="0" viewBox="0 0 96.5 97.679" enable-background="new -1.5 -0.821 100 100" xml:space="preserve" height="197.51186951066495" width="195.1278719866007" class="icon-icon-0" data-fill-palette-color="accent" id="icon-0"><path d="M12.871 17.682v9.211c-0.85 0.993-1.351 2.18-1.351 3.459 0 3.479 3.647 6.297 8.149 6.297 4.5 0 8.149-2.819 8.149-6.297 0-1.445-0.637-2.772-1.696-3.835h-0.071V17.89c1.808-0.335 3.121-1.34 3.121-2.528 0-1.463-1.991-2.648-4.447-2.648-0.806 0-1.56 0.13-2.212 0.353-0.76-0.404-1.718-0.647-2.763-0.647-1.002 0-1.923 0.225-2.667 0.599-0.618-0.194-1.322-0.305-2.069-0.305-2.456 0-4.446 1.185-4.446 2.648C10.568 16.361 11.499 17.231 12.871 17.682zM14.579 25.782v-1.629h9.834v1.629H14.579zM16.178 13.766c0.557 0 1.083 0.094 1.543 0.257 0.555-0.316 1.243-0.505 1.991-0.505 0.78 0 1.495 0.205 2.062 0.544 0.486-0.188 1.048-0.297 1.65-0.297 1.832 0 3.317 0.998 3.317 2.229 0 1-0.979 1.847-2.329 2.129v5.219h-1.698v-2.464h-1.164v2.464h-1.499v-2.464h-1.166v2.464h-1.398v-2.464h-1.165v2.464h-1.746v-5.394c-1.024-0.38-1.718-1.112-1.718-1.954C12.86 14.764 14.345 13.766 16.178 13.766z" fill="#ffffff" data-fill-palette-color="accent"></path><rect x="14.911" y="37.287" width="9.911" height="5.891" fill="#ffffff" data-fill-palette-color="accent"></rect><path d="M26.448 37.287v5.891 0.308 18.866h1.173c1.736 0 3.142-1.764 3.216-3.97h0.014v-0.172c0-0.003 0-0.005 0-0.007h0V41.313h-0.009c-0.051-2.233-1.469-4.027-3.221-4.027H26.448z" fill="#ffffff" data-fill-palette-color="accent"></path><path d="M12.119 62.351h1.166V43.485v-0.308-5.891h-1.167c-1.752 0-3.169 1.794-3.221 4.027H8.888v17.068h0.014C8.977 60.587 10.382 62.351 12.119 62.351z" fill="#ffffff" data-fill-palette-color="accent"></path><rect y="63.549" width="39.74" height="3.052" fill="#ffffff" data-fill-palette-color="accent"></rect><path d="M61.979 52.309l-3.16-5.004-11.402 0.022-3.067 4.982h-2.81v3.053H96.5v-3.053H61.979zM48.058 48.293l10.124-0.021 2.265 4.037h-3.938l0.879-1.111h0.104v-0.13l0.146-0.183h-0.743l-0.016 0.021h-7.264l-0.017-0.021h-0.696l-0.045 0.012 1.146 1.412h-4.138L48.058 48.293zM53.478 51.198h1.743l-0.819 1.111h-0.918L53.478 51.198zM52.197 52.309l-0.82-1.111h1.794l0.007 1.111H52.197zM51.854 52.309h-1.229l-0.803-1.111h1.209L51.854 52.309zM54.745 52.309l0.82-1.111h1.106l-0.781 1.111H54.745z" fill="#ffffff" data-fill-palette-color="accent"></path><rect x="41.54" y="61.119" width="54.96" height="1.526" fill="#ffffff" data-fill-palette-color="accent"></rect><rect x="41.54" y="70.063" width="54.96" height="1.526" fill="#ffffff" data-fill-palette-color="accent"></rect><rect x="41.54" y="82.694" width="54.96" height="1.526" fill="#ffffff" data-fill-palette-color="accent"></rect><rect x="41.54" y="85.815" width="54.96" height="11.864" fill="#ffffff" data-fill-palette-color="accent"></rect><rect x="47.957" y="79.896" width="12.242" height="0.536" fill="#ffffff" data-fill-palette-color="accent"></rect><rect x="63.833" y="79.896" width="12.244" height="0.536" fill="#ffffff" data-fill-palette-color="accent"></rect><path d="M74.78 75.001c-0.211-0.615-2.301-1.099-4.878-1.099-2.575 0-4.662 0.483-4.872 1.099h-0.043v4.338h9.843v-4.338H74.78zM65.805 75.16c0.179-0.553 1.956-0.99 4.145-0.99 2.193 0 3.97 0.438 4.148 0.99h0.042v0.386c-0.186 0.229-0.445 0.439-0.759 0.58-0.453 0.205-0.882 0.213-1.151 0.064l-0.025 0.012c0.105 0.454 0.672 0.608 1.262 0.342 0.282-0.127 0.515-0.329 0.674-0.554v1.304h-8.37v-1.308c0.158 0.202 0.368 0.385 0.628 0.502 0.591 0.268 1.156 0.113 1.261-0.342l-0.025-0.013c-0.268 0.15-0.698 0.141-1.15-0.064-0.29-0.13-0.53-0.319-0.713-0.527V75.16H65.805zM65.77 77.56h8.37v0.501h-8.37V77.56zM65.77 79.072V78.33h8.37v0.742H65.77z" fill="#ffffff" data-fill-palette-color="accent"></path><path d="M68.778 77.065c0.621 0.009 1.126-0.371 1.13-0.852l-0.026-0.001c-0.225 0.256-0.638 0.424-1.113 0.416-0.477-0.007-0.887-0.189-1.106-0.45h-0.004C67.655 76.655 68.155 77.053 68.778 77.065z" fill="#ffffff" data-fill-palette-color="accent"></path><path d="M71.085 77.12c0.622-0.011 1.123-0.409 1.119-0.888h-0.003c-0.221 0.262-0.631 0.443-1.108 0.451-0.474 0.01-0.887-0.16-1.112-0.416l-0.027 0.001C69.959 76.749 70.464 77.128 71.085 77.12z" fill="#ffffff" data-fill-palette-color="accent"></path><path d="M50.088 76.584c-0.625-0.272-1.037-0.851-0.977-1.329v4.084h9.844v-4.338h-0.053c-0.208-0.615-2.298-1.099-4.876-1.099-2.575 0-4.662 0.483-4.874 1.099h-0.042v0.175l0.001 0.003c0.175 0.366 0.567 0.735 1.072 0.955 0.504 0.222 0.985 0.23 1.284 0.069l0.029 0.014C51.38 76.706 50.748 76.874 50.088 76.584zM58.796 78.562h-9.581v-0.287h9.581V78.562zM56.595 76.262c0.298 0.161 0.778 0.152 1.282-0.067 0.505-0.221 0.897-0.588 1.072-0.958l0.003-0.002c0.12 0.492-0.321 1.123-0.979 1.41-0.66 0.286-1.29 0.12-1.409-0.371L56.595 76.262zM54.086 76.348c0.251 0.274 0.711 0.455 1.24 0.444 0.532-0.007 0.989-0.202 1.234-0.482l0.003-0.001c0.005 0.515-0.553 0.942-1.246 0.951-0.692 0.015-1.258-0.396-1.262-0.912H54.086zM58.796 77.451v0.285h-9.581v-0.285H58.796zM51.5 76.25c0.244 0.28 0.702 0.477 1.235 0.486 0.529 0.009 0.99-0.173 1.239-0.447l0.031 0.002c-0.005 0.515-0.569 0.924-1.262 0.912-0.694-0.011-1.252-0.438-1.247-0.955L51.5 76.25z" fill="#ffffff" data-fill-palette-color="accent"></path><rect x="79.319" y="79.97" width="12.243" height="0.535" fill="#ffffff" data-fill-palette-color="accent"></rect><path d="M81.45 76.658c-0.625-0.271-1.037-0.85-0.978-1.328v4.085h9.842v-4.34h-0.05c-0.209-0.614-2.3-1.1-4.876-1.1-2.577 0-4.664 0.485-4.874 1.1h-0.042v0.179h0.001c0.175 0.365 0.566 0.735 1.071 0.956 0.505 0.219 0.985 0.229 1.283 0.067l0.031 0.014C82.739 76.782 82.11 76.946 81.45 76.658zM90.156 78.637h-9.579v-0.289h9.579V78.637zM87.956 76.336c0.299 0.16 0.778 0.151 1.283-0.068 0.505-0.219 0.897-0.59 1.071-0.956l0.003-0.002c0.118 0.491-0.32 1.121-0.979 1.408-0.659 0.289-1.289 0.123-1.41-0.368L87.956 76.336zM85.447 76.422c0.251 0.273 0.712 0.455 1.241 0.445 0.531-0.009 0.988-0.204 1.232-0.485h0.003c0.007 0.516-0.552 0.942-1.244 0.955-0.693 0.01-1.258-0.4-1.262-0.915H85.447zM90.156 77.524v0.286h-9.579v-0.286H90.156zM82.862 76.322c0.244 0.283 0.702 0.479 1.232 0.486 0.532 0.01 0.992-0.172 1.241-0.445h0.029c-0.003 0.516-0.567 0.928-1.26 0.914-0.694-0.009-1.251-0.438-1.246-0.955H82.862z" fill="#ffffff" data-fill-palette-color="accent"></path><polygon points="44.551,67.737 45.243,69.345 47.441,69.328 48.104,67.708 47.096,67.715 47.096,68.526 46.834,68.526   46.834,67.716 46.458,67.721 46.458,68.526 46.197,68.526 46.197,67.723 45.749,67.725 45.749,68.526 45.488,68.526 45.488,67.73   " fill="#ffffff" data-fill-palette-color="accent"></polygon><path d="M44.493 67.528h3.669c0-0.054-0.014-0.104-0.021-0.155-0.413-0.407-1.049-0.683-1.791-0.683-0.771 0-1.432 0.293-1.841 0.728C44.505 67.453 44.493 67.49 44.493 67.528z" fill="#ffffff" data-fill-palette-color="accent"></path><path d="M45.028 65.606l0.574 1.078c0.202-0.069 0.546-0.115 0.94-0.115 0.403 0 0.756 0.048 0.955 0.121l0.559-1.104-0.86 0.004v0.561h-0.222v-0.559l-0.32 0.004v0.555h-0.223v-0.554L46.049 65.6v0.551h-0.224v-0.549L45.028 65.606z" fill="#ffffff" data-fill-palette-color="accent"></path><path d="M44.979 65.462h3.125c0-0.037-0.011-0.072-0.017-0.106-0.352-0.281-0.895-0.471-1.527-0.471-0.656 0-1.218 0.202-1.567 0.501C44.989 65.412 44.979 65.434 44.979 65.462z" fill="#ffffff" data-fill-palette-color="accent"></path><path d="M45.506 63.992l0.476 0.889c0.168-0.059 0.453-0.098 0.78-0.098 0.333 0 0.626 0.043 0.791 0.103l0.464-0.91-0.712 0.003v0.462h-0.184v-0.46l-0.267 0.002v0.458h-0.185v-0.456l-0.317 0.001v0.455h-0.184v-0.453L45.506 63.992z" fill="#ffffff" data-fill-palette-color="accent"></path><path d="M48.043 63.784c-0.292-0.232-0.744-0.387-1.268-0.387-0.544 0-1.01 0.166-1.3 0.413-0.001 0.02-0.009 0.04-0.009 0.062h2.589C48.056 63.841 48.047 63.813 48.043 63.784z" fill="#ffffff" data-fill-palette-color="accent"></path><polygon points="50.946,67.737 51.639,69.345 53.836,69.328 54.5,67.708 53.492,67.715 53.492,68.526 53.229,68.526 53.229,67.716   52.854,67.721 52.854,68.526 52.593,68.526 52.593,67.723 52.145,67.725 52.145,68.526 51.883,68.526 51.883,67.73 " fill="#ffffff" data-fill-palette-color="accent"></polygon><path d="M50.889 67.528h3.669c0-0.054-0.014-0.104-0.021-0.155-0.412-0.407-1.049-0.683-1.79-0.683-0.771 0-1.432 0.293-1.842 0.728C50.899 67.453 50.889 67.49 50.889 67.528z" fill="#ffffff" data-fill-palette-color="accent"></path><path d="M51.423 65.606l0.575 1.078c0.201-0.069 0.546-0.115 0.939-0.115 0.404 0 0.757 0.048 0.955 0.121l0.559-1.104-0.859 0.004v0.561h-0.223v-0.559l-0.319 0.004v0.555h-0.223v-0.554L52.445 65.6v0.551h-0.224v-0.549L51.423 65.606z" fill="#ffffff" data-fill-palette-color="accent"></path><path d="M51.374 65.462H54.5c0-0.037-0.011-0.072-0.017-0.106-0.352-0.281-0.895-0.471-1.528-0.471-0.655 0-1.218 0.202-1.567 0.501C51.385 65.412 51.374 65.434 51.374 65.462z" fill="#ffffff" data-fill-palette-color="accent"></path><path d="M51.901 63.992l0.477 0.889c0.168-0.059 0.452-0.098 0.779-0.098 0.334 0 0.626 0.043 0.792 0.103l0.463-0.91-0.713 0.003v0.462h-0.184v-0.46l-0.267 0.002v0.458h-0.185v-0.456l-0.316 0.001v0.455h-0.185v-0.453L51.901 63.992z" fill="#ffffff" data-fill-palette-color="accent"></path><path d="M54.438 63.784c-0.292-0.232-0.743-0.387-1.268-0.387-0.544 0-1.009 0.166-1.3 0.413-0.001 0.02-0.009 0.04-0.009 0.062h2.589C54.451 63.841 54.442 63.813 54.438 63.784z" fill="#ffffff" data-fill-palette-color="accent"></path><polygon points="57.232,67.824 57.925,69.434 60.122,69.416 60.786,67.795 59.778,67.804 59.778,68.614 59.516,68.614   59.516,67.805 59.141,67.809 59.141,68.614 58.879,68.614 58.879,67.811 58.431,67.813 58.431,68.614 58.17,68.614 58.17,67.817 " fill="#ffffff" data-fill-palette-color="accent"></polygon><path d="M57.175 67.615h3.669c0-0.054-0.013-0.104-0.021-0.154-0.413-0.408-1.049-0.683-1.791-0.683-0.771 0-1.432 0.292-1.841 0.727C57.188 67.542 57.175 67.578 57.175 67.615z" fill="#ffffff" data-fill-palette-color="accent"></path><path d="M57.709 65.693l0.575 1.079c0.202-0.069 0.546-0.115 0.94-0.115 0.403 0 0.757 0.048 0.954 0.121l0.56-1.103-0.86 0.004v0.559h-0.223v-0.557l-0.319 0.002v0.555h-0.223v-0.553l-0.382 0.003v0.55h-0.224v-0.549L57.709 65.693z" fill="#ffffff" data-fill-palette-color="accent"></path><path d="M57.661 65.551h3.125c0-0.038-0.011-0.074-0.017-0.106-0.352-0.282-0.895-0.471-1.527-0.471-0.656 0-1.218 0.201-1.568 0.5C57.671 65.5 57.661 65.523 57.661 65.551z" fill="#ffffff" data-fill-palette-color="accent"></path><path d="M58.188 64.08l0.476 0.889c0.168-0.059 0.452-0.097 0.779-0.097 0.334 0 0.627 0.042 0.792 0.103l0.463-0.912-0.712 0.004v0.462h-0.185v-0.461l-0.266 0.003v0.458h-0.186v-0.456l-0.316 0.001v0.455h-0.184v-0.452L58.188 64.08z" fill="#ffffff" data-fill-palette-color="accent"></path><path d="M60.725 63.872c-0.291-0.233-0.742-0.388-1.267-0.388-0.545 0-1.01 0.168-1.301 0.413-0.001 0.021-0.009 0.042-0.009 0.062h2.59C60.738 63.929 60.729 63.9 60.725 63.872z" fill="#ffffff" data-fill-palette-color="accent"></path><polygon points="63.659,67.859 64.353,69.467 66.55,69.45 67.214,67.83 66.204,67.838 66.204,68.648 65.943,68.648 65.943,67.84   65.567,67.844 65.567,68.648 65.305,68.648 65.305,67.846 64.856,67.848 64.856,68.648 64.597,68.648 64.597,67.852 " fill="#ffffff" data-fill-palette-color="accent"></polygon><path d="M63.603 67.65h3.668c0-0.053-0.014-0.104-0.021-0.155-0.412-0.407-1.049-0.682-1.791-0.682-0.771 0-1.432 0.293-1.841 0.726C63.613 67.577 63.603 67.611 63.603 67.65z" fill="#ffffff" data-fill-palette-color="accent"></path><path d="M64.136 65.728l0.574 1.079c0.202-0.07 0.547-0.115 0.941-0.115 0.402 0 0.756 0.048 0.953 0.121l0.561-1.103-0.86 0.004v0.56h-0.222v-0.558l-0.321 0.002v0.556h-0.223v-0.555l-0.382 0.003v0.552h-0.224v-0.551L64.136 65.728z" fill="#ffffff" data-fill-palette-color="accent"></path><path d="M64.087 65.584h3.127c0-0.036-0.012-0.072-0.019-0.106-0.351-0.28-0.895-0.47-1.527-0.47-0.656 0-1.217 0.201-1.567 0.501C64.097 65.535 64.087 65.558 64.087 65.584z" fill="#ffffff" data-fill-palette-color="accent"></path><path d="M64.614 64.114l0.476 0.89c0.169-0.06 0.453-0.097 0.78-0.097 0.333 0 0.626 0.043 0.791 0.102l0.464-0.91-0.712 0.003v0.462h-0.185v-0.461l-0.266 0.002v0.459h-0.186v-0.457l-0.317 0.001v0.456h-0.184v-0.454L64.614 64.114z" fill="#ffffff" data-fill-palette-color="accent"></path><path d="M67.151 63.905c-0.292-0.231-0.743-0.387-1.267-0.387-0.544 0-1.01 0.167-1.301 0.413-0.001 0.021-0.009 0.042-0.009 0.062h2.59C67.165 63.964 67.156 63.936 67.151 63.905z" fill="#ffffff" data-fill-palette-color="accent"></path><polygon points="70.393,67.804 71.085,69.413 73.282,69.395 73.946,67.775 72.938,67.784 72.938,68.592 72.676,68.592   72.676,67.785 72.301,67.789 72.301,68.592 72.039,68.592 72.039,67.791 71.591,67.792 71.591,68.592 71.329,68.592 71.329,67.796   " fill="#ffffff" data-fill-palette-color="accent"></polygon><path d="M70.336 67.595h3.668c0-0.054-0.014-0.104-0.021-0.155-0.412-0.407-1.049-0.683-1.79-0.683-0.771 0-1.432 0.293-1.842 0.727C70.347 67.521 70.336 67.556 70.336 67.595z" fill="#ffffff" data-fill-palette-color="accent"></path><path d="M70.869 65.673l0.575 1.078c0.201-0.07 0.546-0.114 0.939-0.114 0.403 0 0.757 0.047 0.955 0.12l0.56-1.104-0.86 0.005v0.56h-0.222v-0.558l-0.32 0.003v0.555h-0.223v-0.554l-0.382 0.003v0.551h-0.224v-0.55L70.869 65.673z" fill="#ffffff" data-fill-palette-color="accent"></path><path d="M70.82 65.53h3.126c0-0.036-0.011-0.073-0.017-0.106-0.352-0.281-0.895-0.47-1.528-0.47-0.655 0-1.217 0.201-1.566 0.5C70.831 65.479 70.82 65.502 70.82 65.53z" fill="#ffffff" data-fill-palette-color="accent"></path><path d="M71.348 64.058l0.477 0.891c0.168-0.061 0.452-0.098 0.779-0.098 0.333 0 0.626 0.042 0.792 0.103l0.463-0.911-0.712 0.003v0.462h-0.184v-0.46l-0.268 0.002v0.458h-0.185v-0.456l-0.316 0.001v0.455H72.01v-0.453L71.348 64.058z" fill="#ffffff" data-fill-palette-color="accent"></path><path d="M73.885 63.85c-0.292-0.232-0.743-0.387-1.268-0.387-0.543 0-1.009 0.167-1.3 0.413-0.001 0.021-0.009 0.042-0.009 0.062h2.59C73.898 63.908 73.89 63.879 73.885 63.85z" fill="#ffffff" data-fill-palette-color="accent"></path><polygon points="76.789,67.804 77.481,69.413 79.679,69.395 80.343,67.775 79.333,67.784 79.333,68.592 79.072,68.592   79.072,67.785 78.696,67.789 78.696,68.592 78.434,68.592 78.434,67.791 77.985,67.792 77.985,68.592 77.726,68.592 77.726,67.796   " fill="#ffffff" data-fill-palette-color="accent"></polygon><path d="M76.731 67.595h3.668c0-0.054-0.014-0.104-0.021-0.155-0.412-0.407-1.049-0.683-1.791-0.683-0.771 0-1.432 0.293-1.841 0.727C76.742 67.521 76.731 67.556 76.731 67.595z" fill="#ffffff" data-fill-palette-color="accent"></path><path d="M77.265 65.673l0.574 1.078c0.202-0.07 0.547-0.114 0.941-0.114 0.402 0 0.756 0.047 0.954 0.12l0.56-1.104-0.859 0.005v0.56h-0.223v-0.558l-0.321 0.003v0.555h-0.223v-0.554l-0.382 0.003v0.551h-0.224v-0.55L77.265 65.673z" fill="#ffffff" data-fill-palette-color="accent"></path><path d="M77.216 65.53h3.127c0-0.036-0.011-0.073-0.019-0.106-0.351-0.281-0.894-0.47-1.527-0.47-0.656 0-1.217 0.201-1.567 0.5C77.227 65.479 77.216 65.502 77.216 65.53z" fill="#ffffff" data-fill-palette-color="accent"></path><path d="M77.744 64.058l0.476 0.891c0.169-0.061 0.453-0.098 0.779-0.098 0.333 0 0.626 0.042 0.791 0.103l0.465-0.911-0.713 0.003v0.462h-0.184v-0.46l-0.267 0.002v0.458h-0.185v-0.456l-0.318 0.001v0.455h-0.184v-0.453L77.744 64.058z" fill="#ffffff" data-fill-palette-color="accent"></path><path d="M80.28 63.85c-0.292-0.232-0.743-0.387-1.267-0.387-0.544 0-1.01 0.167-1.301 0.413-0.001 0.021-0.009 0.042-0.009 0.062h2.59C80.294 63.908 80.285 63.879 80.28 63.85z" fill="#ffffff" data-fill-palette-color="accent"></path><polygon points="83.075,67.892 83.768,69.5 85.965,69.483 86.629,67.863 85.62,67.871 85.62,68.681 85.358,68.681 85.358,67.872   84.982,67.875 84.982,68.681 84.721,68.681 84.721,67.878 84.272,67.88 84.272,68.681 84.012,68.681 84.012,67.884 " fill="#ffffff" data-fill-palette-color="accent"></polygon><path d="M83.018 67.683h3.669c0-0.054-0.014-0.104-0.021-0.155-0.413-0.409-1.049-0.683-1.791-0.683-0.771 0-1.432 0.293-1.842 0.728C83.028 67.608 83.018 67.645 83.018 67.683z" fill="#ffffff" data-fill-palette-color="accent"></path><path d="M83.551 65.76l0.575 1.078c0.202-0.068 0.546-0.114 0.94-0.114 0.403 0 0.756 0.048 0.954 0.121l0.56-1.104-0.859 0.004v0.56h-0.223v-0.558l-0.32 0.002v0.556h-0.223v-0.553l-0.382 0.003v0.55H84.35v-0.549L83.551 65.76z" fill="#ffffff" data-fill-palette-color="accent"></path><path d="M83.504 65.618h3.125c0-0.037-0.011-0.073-0.018-0.106-0.352-0.281-0.895-0.471-1.527-0.471-0.656 0-1.218 0.202-1.567 0.5C83.514 65.567 83.504 65.589 83.504 65.618z" fill="#ffffff" data-fill-palette-color="accent"></path><path d="M84.031 64.147l0.475 0.889c0.169-0.059 0.453-0.098 0.779-0.098 0.334 0 0.627 0.043 0.792 0.103l0.464-0.91-0.713 0.003v0.462h-0.184v-0.461l-0.267 0.003v0.458h-0.185v-0.456l-0.317 0.001v0.455h-0.185v-0.453L84.031 64.147z" fill="#ffffff" data-fill-palette-color="accent"></path><path d="M86.566 63.939c-0.291-0.232-0.743-0.388-1.267-0.388-0.544 0-1.01 0.167-1.301 0.413-0.001 0.021-0.009 0.041-0.009 0.062h2.59C86.58 63.997 86.571 63.968 86.566 63.939z" fill="#ffffff" data-fill-palette-color="accent"></path><polygon points="89.501,67.925 90.193,69.535 92.391,69.517 93.055,67.897 92.047,67.906 92.047,68.716 91.784,68.716   91.784,67.908 91.408,67.912 91.408,68.716 91.147,68.716 91.147,67.914 90.699,67.916 90.699,68.716 90.438,68.716 90.438,67.918   " fill="#ffffff" data-fill-palette-color="accent"></polygon><path d="M89.443 67.716h3.669c0-0.053-0.013-0.104-0.021-0.155-0.413-0.406-1.05-0.681-1.792-0.681-0.771 0-1.431 0.292-1.84 0.726C89.455 67.644 89.443 67.679 89.443 67.716z" fill="#ffffff" data-fill-palette-color="accent"></path><path d="M89.978 65.794l0.575 1.079c0.201-0.069 0.546-0.115 0.94-0.115 0.402 0 0.757 0.049 0.954 0.122l0.56-1.103-0.86 0.004v0.559h-0.223v-0.557l-0.32 0.002v0.555h-0.222v-0.554l-0.383 0.003v0.551h-0.223v-0.55L89.978 65.794z" fill="#ffffff" data-fill-palette-color="accent"></path><path d="M89.93 65.652h3.125c0-0.037-0.011-0.072-0.018-0.106-0.352-0.28-0.894-0.471-1.526-0.471-0.656 0-1.218 0.202-1.568 0.502C89.939 65.603 89.93 65.625 89.93 65.652z" fill="#ffffff" data-fill-palette-color="accent"></path><path d="M90.457 64.181l0.476 0.889c0.168-0.058 0.452-0.096 0.778-0.096 0.335 0 0.628 0.042 0.793 0.101l0.463-0.91-0.712 0.003v0.463H92.07v-0.461l-0.266 0.002v0.459h-0.186v-0.457l-0.316 0.001v0.456h-0.184v-0.454L90.457 64.181z" fill="#ffffff" data-fill-palette-color="accent"></path><path d="M92.993 63.973c-0.291-0.232-0.742-0.387-1.267-0.387-0.545 0-1.01 0.166-1.301 0.412-0.001 0.021-0.009 0.042-0.009 0.062h2.59C93.007 64.032 92.998 64.002 92.993 63.973z" fill="#ffffff" data-fill-palette-color="accent"></path><path d="M53.335 50.684h1.878c0-0.034-0.009-0.065-0.011-0.098-0.226-0.258-0.572-0.431-0.978-0.431-0.385 0-0.712 0.159-0.938 0.396-0.225-0.236-0.555-0.396-0.939-0.396-0.419 0-0.779 0.186-1.002 0.459-0.002 0.022-0.009 0.045-0.009 0.069h1.879H53.335z" fill="#ffffff" data-fill-palette-color="accent"></path><path d="M57.212 50.684h0.503c0-0.034-0.005-0.065-0.005-0.098-0.069-0.258-0.179-0.431-0.306-0.431-0.113 0-0.21 0.144-0.28 0.359-0.225-0.216-0.536-0.359-0.899-0.359-0.421 0-0.78 0.186-1.004 0.459-0.002 0.022-0.008 0.045-0.008 0.069h1.875H57.212z" fill="#ffffff" data-fill-palette-color="accent"></path><path d="M49.342 50.684h1.994c0-0.034-0.008-0.065-0.011-0.098-0.225-0.258-0.573-0.431-0.977-0.431-0.421 0-0.78 0.186-1.003 0.459-0.001 0.014-0.003 0.027-0.004 0.041-0.001-0.024-0.002-0.047-0.004-0.069-0.07-0.258-0.178-0.431-0.305-0.431-0.131 0-0.243 0.186-0.314 0.459 0 0.022-0.002 0.045-0.002 0.069h0.621H49.342z" fill="#ffffff" data-fill-palette-color="accent"></path><path d="M44.317 58.417c0 0.29 0.15 0.551 0.389 0.739v1.406h3.484v-1.406c0.24-0.188 0.389-0.449 0.389-0.739 0-0.533-0.505-0.968-1.154-1.029v-0.014h-2.112v0.034C44.741 57.523 44.317 57.93 44.317 58.417zM45.556 57.786v-0.026h1.658v0.011c0.51 0.046 0.907 0.378 0.907 0.781 0 0.219-0.117 0.417-0.306 0.561v1.066h-2.737v-1.066c-0.187-0.144-0.305-0.342-0.305-0.561C44.774 58.181 45.109 57.873 45.556 57.786z" fill="#ffffff" data-fill-palette-color="accent"></path><path d="M47.045 56.558v0.032c-0.18 0.037-0.333 0.11-0.474 0.201h-0.149v0.036c-0.199 0.039-0.37 0.121-0.521 0.223h-0.223v0.034c-0.251 0.047-0.473 0.149-0.649 0.283 0.056-0.017 0.113-0.031 0.174-0.042v-0.037h2.243v0.015c0.691 0.062 1.229 0.501 1.229 1.04 0 0.291-0.158 0.556-0.414 0.746v1.356l0.013 0.024 0.495-0.203-0.03-0.062v-1.357c0.255-0.19 0.416-0.454 0.416-0.745 0-0.538-0.54-0.978-1.229-1.041V57.05h-1.956v-0.019H48.1v0.015c0.658 0.062 1.168 0.5 1.168 1.037 0 0.291-0.15 0.553-0.394 0.743v1.355l0.012 0.025 0.47-0.203-0.026-0.061v-1.355c0.242-0.191 0.393-0.454 0.393-0.747 0-0.535-0.512-0.973-1.168-1.037v-0.011h0.117v0.013c0.635 0.062 1.13 0.493 1.13 1.021 0 0.287-0.146 0.547-0.38 0.734v1.334l0.011 0.024 0.456-0.198-0.026-0.062v-1.335c0.233-0.187 0.38-0.445 0.38-0.733 0-0.529-0.495-0.96-1.129-1.023v-0.011H47.045z" fill="#ffffff" data-fill-palette-color="accent"></path><path d="M52.446 58.293c0 0.291 0.149 0.553 0.389 0.74v1.408h3.484v-1.408c0.239-0.188 0.388-0.449 0.388-0.74 0-0.531-0.505-0.966-1.153-1.028v-0.013h-2.111v0.033C52.869 57.4 52.446 57.808 52.446 58.293zM53.685 57.664v-0.026h1.658v0.01c0.511 0.046 0.907 0.379 0.907 0.781 0 0.221-0.116 0.418-0.306 0.562v1.066h-2.736V58.99c-0.188-0.144-0.305-0.341-0.305-0.562C52.903 58.059 53.237 57.75 53.685 57.664z" fill="#ffffff" data-fill-palette-color="accent"></path><path d="M55.174 56.434v0.035c-0.18 0.035-0.334 0.11-0.473 0.2h-0.15v0.035c-0.198 0.039-0.369 0.122-0.521 0.222h-0.223v0.037c-0.251 0.046-0.473 0.148-0.649 0.282 0.057-0.017 0.113-0.032 0.174-0.043v-0.036h2.242v0.015c0.691 0.062 1.229 0.501 1.229 1.04 0 0.29-0.158 0.556-0.413 0.745v1.357l0.012 0.024 0.496-0.204-0.03-0.062v-1.357c0.256-0.189 0.415-0.454 0.415-0.745 0-0.538-0.539-0.977-1.229-1.039v-0.015h-1.955v-0.016h2.131v0.012c0.659 0.062 1.168 0.5 1.168 1.037 0 0.292-0.15 0.554-0.394 0.746v1.354l0.012 0.024 0.47-0.202-0.027-0.062v-1.353c0.242-0.193 0.394-0.456 0.394-0.747 0-0.536-0.511-0.975-1.167-1.038v-0.011H56.8v0.012c0.636 0.062 1.13 0.493 1.13 1.022 0 0.287-0.146 0.546-0.38 0.735v1.332l0.011 0.024 0.455-0.199-0.025-0.061v-1.335c0.233-0.187 0.38-0.445 0.38-0.734 0-0.526-0.495-0.958-1.13-1.021v-0.014H55.174z" fill="#ffffff" data-fill-palette-color="accent"></path><path d="M62.034 58.239c0 0.291 0.149 0.552 0.389 0.74v1.407h3.484v-1.407c0.24-0.188 0.389-0.449 0.389-0.74 0-0.532-0.505-0.967-1.153-1.028v-0.014H63.03v0.034C62.458 57.345 62.034 57.752 62.034 58.239zM63.272 57.608v-0.026h1.658v0.011c0.511 0.046 0.907 0.378 0.907 0.781 0 0.22-0.116 0.417-0.305 0.562V60h-2.737v-1.065c-0.188-0.145-0.305-0.342-0.305-0.562C62.491 58.003 62.825 57.695 63.272 57.608z" fill="#ffffff" data-fill-palette-color="accent"></path><path d="M64.763 56.379v0.033c-0.18 0.037-0.334 0.111-0.474 0.201H64.14v0.035c-0.199 0.04-0.37 0.122-0.521 0.223h-0.222v0.035c-0.251 0.048-0.473 0.149-0.65 0.283 0.057-0.017 0.114-0.031 0.175-0.043v-0.035h2.242v0.014c0.692 0.062 1.229 0.502 1.229 1.041 0 0.289-0.159 0.554-0.415 0.745v1.356l0.012 0.024 0.496-0.204-0.03-0.062v-1.357c0.256-0.188 0.416-0.453 0.416-0.744 0-0.538-0.54-0.978-1.229-1.04v-0.014h-1.957v-0.018h2.132v0.014c0.658 0.062 1.167 0.5 1.167 1.037 0 0.292-0.149 0.554-0.394 0.745v1.354l0.012 0.025 0.471-0.202-0.027-0.062v-1.354c0.242-0.191 0.394-0.455 0.394-0.746 0-0.536-0.512-0.974-1.168-1.037v-0.012h0.117v0.013c0.635 0.062 1.13 0.493 1.13 1.022 0 0.286-0.146 0.546-0.38 0.733v1.334l0.011 0.024 0.455-0.199-0.026-0.062v-1.334c0.233-0.188 0.38-0.445 0.38-0.734 0-0.526-0.495-0.959-1.13-1.021v-0.013H64.763z" fill="#ffffff" data-fill-palette-color="accent"></path><path d="M70.163 58.116c0 0.291 0.149 0.552 0.389 0.741v1.407h3.484v-1.407c0.239-0.189 0.388-0.45 0.388-0.741 0-0.531-0.505-0.967-1.153-1.029v-0.012h-2.111v0.033C70.586 57.224 70.163 57.629 70.163 58.116zM71.401 57.486v-0.026h1.658v0.009c0.511 0.048 0.907 0.379 0.907 0.782 0 0.221-0.116 0.417-0.306 0.562v1.066h-2.736v-1.066c-0.188-0.145-0.305-0.341-0.305-0.562C70.62 57.881 70.954 57.572 71.401 57.486z" fill="#ffffff" data-fill-palette-color="accent"></path><path d="M72.891 56.256v0.035c-0.18 0.035-0.334 0.11-0.473 0.199h-0.149v0.037c-0.199 0.038-0.37 0.12-0.521 0.221h-0.223v0.037c-0.251 0.047-0.473 0.147-0.649 0.283 0.057-0.018 0.113-0.034 0.174-0.044V56.99h2.242v0.014c0.691 0.063 1.229 0.501 1.229 1.04 0 0.29-0.158 0.556-0.413 0.745v1.356l0.012 0.025 0.496-0.204-0.03-0.062v-1.356c0.256-0.19 0.415-0.455 0.415-0.747 0-0.537-0.539-0.976-1.229-1.039v-0.014h-1.955v-0.016h2.131v0.012c0.659 0.063 1.168 0.501 1.168 1.037 0 0.291-0.15 0.555-0.394 0.746v1.354l0.012 0.024 0.47-0.203-0.027-0.062v-1.354c0.242-0.192 0.394-0.455 0.394-0.746 0-0.536-0.511-0.975-1.167-1.038v-0.012h0.116v0.014c0.636 0.061 1.13 0.493 1.13 1.021 0 0.288-0.146 0.546-0.38 0.736v1.331l0.011 0.025 0.455-0.199-0.025-0.061v-1.334c0.233-0.188 0.38-0.447 0.38-0.734 0-0.528-0.495-0.96-1.13-1.022v-0.013H72.891z" fill="#ffffff" data-fill-palette-color="accent"></path><path d="M79.195 58.13c0 0.291 0.15 0.553 0.39 0.74v1.407h3.484v-1.407c0.24-0.188 0.389-0.449 0.389-0.74 0-0.532-0.506-0.967-1.153-1.028v-0.014h-2.112v0.034C79.62 57.237 79.195 57.644 79.195 58.13zM80.435 57.5v-0.026h1.658v0.011C82.604 57.529 83 57.862 83 58.265c0 0.22-0.117 0.418-0.305 0.561v1.066h-2.737v-1.066c-0.188-0.143-0.305-0.341-0.305-0.561C79.653 57.895 79.987 57.586 80.435 57.5z" fill="#ffffff" data-fill-palette-color="accent"></path><path d="M81.925 56.271v0.034c-0.181 0.036-0.334 0.11-0.475 0.201h-0.149v0.034c-0.197 0.04-0.37 0.123-0.521 0.223h-0.222v0.036c-0.252 0.047-0.474 0.148-0.65 0.282 0.057-0.018 0.113-0.031 0.174-0.044v-0.034h2.243v0.014c0.691 0.062 1.229 0.502 1.229 1.041 0 0.29-0.159 0.554-0.414 0.745v1.356l0.013 0.024 0.495-0.204-0.03-0.061v-1.358c0.256-0.188 0.416-0.453 0.416-0.745 0-0.537-0.54-0.977-1.229-1.039v-0.014h-1.957v-0.018h2.133v0.014c0.657 0.062 1.167 0.5 1.167 1.037 0 0.292-0.15 0.554-0.394 0.744v1.356l0.012 0.024 0.471-0.202-0.027-0.063v-1.353c0.242-0.192 0.393-0.456 0.393-0.748 0-0.535-0.511-0.973-1.167-1.037v-0.01h0.116v0.011c0.636 0.062 1.13 0.493 1.13 1.023 0 0.287-0.146 0.546-0.38 0.733v1.334l0.011 0.024 0.455-0.199-0.025-0.062V58.04c0.233-0.187 0.38-0.445 0.38-0.734 0-0.527-0.496-0.959-1.13-1.021v-0.013H81.925z" fill="#ffffff" data-fill-palette-color="accent"></path><path d="M87.324 58.007c0 0.291 0.149 0.552 0.389 0.74v1.408h3.485v-1.408c0.239-0.188 0.389-0.449 0.389-0.74 0-0.532-0.506-0.967-1.154-1.028v-0.013h-2.111V57C87.748 57.115 87.324 57.521 87.324 58.007zM88.563 57.377v-0.026h1.658v0.01c0.51 0.047 0.907 0.379 0.907 0.781 0 0.221-0.117 0.417-0.306 0.562v1.066h-2.737v-1.066c-0.187-0.145-0.305-0.341-0.305-0.562C87.781 57.773 88.116 57.463 88.563 57.377z" fill="#ffffff" data-fill-palette-color="accent"></path><path d="M90.053 56.149v0.033c-0.18 0.036-0.334 0.111-0.474 0.2H89.43v0.037c-0.198 0.038-0.37 0.12-0.521 0.222h-0.222v0.036c-0.251 0.046-0.473 0.148-0.649 0.282 0.056-0.017 0.113-0.033 0.174-0.043V56.88h2.243v0.015c0.69 0.062 1.228 0.501 1.228 1.04 0 0.29-0.158 0.555-0.413 0.745v1.356l0.012 0.025 0.495-0.204-0.029-0.062V58.44c0.255-0.19 0.414-0.455 0.414-0.747 0-0.536-0.539-0.976-1.228-1.039v-0.013h-1.957v-0.018h2.132v0.013c0.658 0.062 1.168 0.501 1.168 1.038 0 0.291-0.15 0.553-0.394 0.745v1.354l0.012 0.024 0.47-0.203-0.027-0.062V58.18c0.242-0.191 0.394-0.455 0.394-0.746 0-0.536-0.512-0.974-1.167-1.037v-0.013h0.116v0.014c0.635 0.061 1.13 0.493 1.13 1.021 0 0.288-0.146 0.547-0.38 0.736v1.331l0.011 0.025 0.455-0.198-0.025-0.062v-1.335c0.233-0.187 0.38-0.445 0.38-0.733 0-0.528-0.496-0.96-1.13-1.022v-0.012H90.053z" fill="#ffffff" data-fill-palette-color="accent"></path><rect y="67.819" width="39.74" height="29.86" fill="#ffffff" data-fill-palette-color="accent"></rect><path d="M91.783 0H42.468v17.621h49.315V0zM90.479 16.373h-46.74V1.249h46.74V16.373z" fill="#ffffff" data-fill-palette-color="accent"></path><path d="M66.599 2.151H44.814v13.32h21.785V2.151zM58.938 3.711h2.11V4.96h-2.11V3.711zM46.938 3.711h9.97V4.96h-9.97V3.711zM46.938 6.833h9.97v1.249h-9.97V6.833zM57.062 13.909h-9.97v-1.248h9.97V13.909zM57.062 10.788h-9.97V9.539h9.97V10.788zM58.938 6.833h2.11v1.249h-2.11V6.833zM61.203 13.909h-2.11v-1.248h2.11V13.909zM61.203 10.788h-2.11V9.539h2.11V10.788z" fill="#ffffff" data-fill-palette-color="accent"></path><path d="M89.569 2.151H67.774v13.32h21.795V2.151zM84.545 3.711h2.111V4.96h-2.111V3.711zM72.546 3.711h9.97V4.96h-9.97V3.711zM72.546 6.833h9.97v1.249h-9.97V6.833zM82.671 13.909h-9.97v-1.248h9.97V13.909zM82.671 10.788h-9.97V9.539h9.97V10.788zM84.545 6.833h2.111v1.249h-2.111V6.833zM86.811 13.909H84.7v-1.248h2.11V13.909zM86.811 10.788H84.7V9.539h2.11V10.788z" fill="#ffffff" data-fill-palette-color="accent"></path></svg></g></svg></g></svg></g><defs></defs></svg><rect width="395.52" height="125.64097084323676" fill="none" stroke="none" visibility="hidden"></rect></g></svg></g></svg>